<?xml version="1.0" standalone="no"?>
<!DOCTYPE svg PUBLIC "-//W3C//DTD SVG 1.1//EN" "http://www.w3.org/Graphics/SVG/1.1/DTD/svg11.dtd" >
<svg xmlns="http://www.w3.org/2000/svg">
<metadata>Generated by IcoMoon</metadata>
<defs>
<font id="TS-Custom-Font" horiz-adv-x="1024">
<font-face units-per-em="1024" ascent="960" descent="-64" />
<missing-glyph horiz-adv-x="1024" />
<glyph unicode="&#x20;" horiz-adv-x="512" d="" />
<glyph unicode="&#xe900;" glyph-name="star-solid" d="M1024 562.971l-353.721 51.417-158.243 320.596-158.227-320.596-353.809-51.417 256.016-249.551-60.431-352.405 316.463 166.384 316.395-166.384-60.379 352.405z" />
<glyph unicode="&#xe901;" glyph-name="star-outline" d="M512.047 788.481l115.172-233.37 257.47-37.425-186.284-181.645 43.947-256.506-230.31 121.105-230.339-121.105 43.986 256.509-186.343 181.642 257.525 37.425 115.178 233.37zM512.050 934.998l-0.013-0.022-158.23-320.598-353.807-51.418 256.014-249.555-60.428-352.403 316.467 166.388 316.399-166.388-60.385 352.406 255.933 249.555-353.719 51.418-158.23 320.617z" />
<glyph unicode="&#xe902;" glyph-name="star-rounded-solid" d="M960.687 605.102l-271.579 39.477-121.472 246.118c-30.584 61.96-80.632 61.96-111.213 0l-121.475-246.118-271.642-39.473c-68.33-9.947-83.786-57.51-34.384-105.722l196.592-191.638-46.387-270.486c-11.681-68.126 28.807-97.553 89.989-65.387l242.92 127.718 242.917-127.718c61.157-32.161 101.601-2.738 89.916 65.387l-46.328 270.486 196.532 191.638c49.413 48.207 33.949 95.771-34.384 105.719z" />
<glyph unicode="&#xe903;" glyph-name="star-rounded-outline" d="M512.033 855.998l133.771-271.031 299.041-43.468-216.372-210.984 51.017-297.857-267.454 140.616-267.528-140.655 51.088 297.892-216.437 210.984 299.103 43.471 133.771 271.031zM512.033 937.167c-20.157 0-40.318-15.49-55.608-46.471l-121.473-246.116-271.648-39.479c-68.33-9.949-83.784-57.513-34.382-105.722l196.59-191.636-46.389-270.487c-8.466-49.376 10.478-78.424 44.837-78.424 13.048 0 28.317 4.187 45.153 13.038l242.92 127.718 242.917-127.718c16.827-8.851 32.092-13.038 45.131-13.038 34.343 0 53.26 29.043 44.791 78.424l-46.33 270.487 196.531 191.636c49.412 48.209 33.948 95.773-34.382 105.722l-271.575 39.479-121.473 246.116c-15.292 30.981-35.451 46.471-55.608 46.471v0z" />
<glyph unicode="&#xe904;" glyph-name="star-box" d="M914.23 960h-804.457c-60.375 0-109.773-49.398-109.773-109.773v-804.454c0-60.375 49.398-109.773 109.773-109.773h804.454c60.375 0 109.773 49.398 109.773 109.773v804.454c0.003 60.375-49.394 109.773-109.77 109.773zM911.294 514.863l-162.446-158.403 38.296-223.575c9.657-56.31-23.777-80.632-74.323-54.048l-200.79 105.569-200.79-105.569c-50.572-26.583-84.038-2.262-74.383 54.048l38.344 223.575-162.497 158.403c-40.836 39.848-28.062 79.161 28.42 87.386l224.534 32.628 100.406 203.435c25.281 51.216 66.651 51.216 91.928 0l100.406-203.435 224.479-32.628c56.478-8.226 69.255-47.539 28.416-87.386z" />
<glyph unicode="&#xe905;" glyph-name="quote-icon-01" d="M442.279 832.584c-175.186-112.166-262.806-247.336-262.806-405.398 0-49.15 8.562-73.748 25.63-73.748l17.637 4.796c13.872 5.366 25.116 8.048 33.678 8.048 50.176 0 92.129-18.267 125.807-54.742 33.621-36.474 50.459-81.515 50.459-135.17 0-51.545-18.15-95.269-54.515-131.173-36.305-35.961-80.088-53.942-131.403-53.942-71.582 0-130.604 29.456-177.070 88.307s-69.696 132.716-69.696 221.537c0 100.634 19.751 192.651 59.308 276.108 39.5 83.511 99.895 158.972 181.065 226.389s132.999 101.148 155.437 101.148c14.954 0 27.286-7.249 36.874-21.633 9.589-14.441 14.441-26.999 14.441-37.675l-4.845-12.853zM1019.208 832.584c-175.243-112.166-262.806-247.336-262.806-405.398 0-49.15 8.562-73.748 25.63-73.748l17.637 4.796c13.872 5.366 25.059 8.048 33.678 8.048 49.089 0 90.759-18.267 124.955-54.742s51.315-81.515 51.315-135.17c0-51.545-18.21-95.269-54.515-131.173-36.305-35.961-80.145-53.942-131.403-53.942-71.582 0-130.604 29.456-177.070 88.307s-69.696 132.716-69.696 221.537c0 101.664 20.037 194.48 60.050 278.561 40.070 83.967 100.408 159.202 181.122 225.532 80.657 66.33 132.204 99.552 154.636 99.552 14.954 0 27.23-7.249 36.874-21.633 9.589-14.441 14.384-26.999 14.384-37.675l-4.792-12.853z" />
<glyph unicode="&#xe906;" glyph-name="quote-icon-02" d="M501.221 714.716c3.585-9.011 5.392-19.796 5.392-32.327 0-55.708-21.556-93.461-64.684-113.192-79.074-35.946-118.567-104.215-118.567-204.81 0-48.507 9.43-94.298 28.306-137.413 18.86-43.112 39.949-69.175 63.329-78.152 8.959-3.619 13.467-9.917 13.467-18.86 0-17.989-13.049-37.719-39.077-59.292-26.064-21.573-48.973-29.648-68.705-24.252-100.647 23.315-174.278 60.164-220.975 110.478-66.479 71.823-99.707 164.378-99.707 277.571 0 95.204 22.914 184.579 68.722 268.124s99.241 132.453 160.324 146.86c25.141 7.169 74.114-7.67 146.873-44.453 72.756-36.852 114.513-66.965 125.301-90.281zM1018.608 714.716c3.585-9.011 5.392-19.796 5.392-32.327 0-55.708-21.556-93.461-64.684-113.192-79.074-35.946-118.567-104.215-118.567-204.81 0-48.507 9.447-94.298 28.306-137.413s39.949-69.175 63.329-78.152c8.959-3.619 13.467-9.917 13.467-18.86 0-17.989-13.049-37.719-39.077-59.292-26.064-21.573-48.956-29.648-68.705-24.252-100.63 23.315-174.278 60.164-220.975 110.478-66.479 71.823-99.707 164.378-99.707 277.571 0 95.204 22.914 184.579 68.722 268.124s99.241 132.453 160.324 146.86c25.141 7.169 74.114-7.67 146.873-44.453 72.756-36.852 114.513-66.965 125.301-90.281z" />
<glyph unicode="&#xe907;" glyph-name="quote-icon-03" d="M96.922 96.025c-64.648 0-96.922 33.152-96.922 99.466v232.098c0 34.003 4.658 63.77 14.029 89.278 9.326 25.504 25.902 52.682 49.726 81.62l124.985 175.983c11.871 16.984 28.89 25.504 51.012 25.504h84.165c22.084 0 33.162-5.979 33.162-17.847 0-11.919-3.434-21.28-10.203-28.063l-84.174-114.771c-8.523-10.203-13.623-18.292-15.302-24.232-1.704-5.979-2.545-13.191-2.545-21.678 0-18.736 8.485-28.063 25.504-28.063h66.314c67.983 0 102.024-34.869 102.024-104.569v-265.26c0-66.314-34.042-99.466-102.024-99.466h-239.752zM682.22 96.025c-64.635 0-96.911 33.152-96.911 99.466v232.098c0 34.003 4.658 63.77 14.020 89.278 9.326 25.504 25.902 52.682 49.74 81.62l124.974 175.983c11.882 16.984 28.904 25.504 51.012 25.504h84.174c22.074 0 33.152-5.979 33.152-17.847 0-11.919-3.42-21.28-10.203-28.063l-84.165-114.771c-8.533-10.203-13.636-18.292-15.302-24.232-1.717-5.979-2.554-13.191-2.554-21.678 0-18.736 8.499-28.063 25.504-28.063h66.314c67.997 0 102.024-34.869 102.024-104.569v-265.26c0-66.314-34.028-99.466-102.024-99.466h-239.756z" />
<glyph unicode="&#xe908;" glyph-name="quote-icon-04" d="M0 301.947c0 85.34 29.537 154.263 75.491 229.753l173.948 278.972h167.38l-111.574-301.958c68.924-32.801 137.843-105.006 137.843-203.484 0-127.994-105.024-219.901-223.186-219.901-114.877 0-219.901 91.91-219.901 216.618zM580.93 301.947c0 85.34 29.537 154.263 75.491 229.753l173.948 278.972h167.38l-111.591-301.958c68.924-32.801 137.843-105.006 137.843-203.484 0-127.994-105.024-219.901-223.186-219.901-114.86 0-219.884 91.91-219.884 216.618z" />
<glyph unicode="&#xe909;" glyph-name="quote-icon-05" d="M348.986 420.703c-19.676-19.676-30.887-44.531-33.601-74.562-2.749-30.033 0.534-61.42 9.822-94.202 9.284-32.745 23.213-64.99 41.781-96.667s39.352-58.957 62.276-81.916c15.285-16.389 18.853-29.783 10.641-40.139-8.176-10.392-19.925-11.211-35.21-2.465-45.888 24.031-92.846 54.349-140.909 90.952-48.067 36.566-91.738 78.881-131.091 126.947-39.316 48.067-71.238 102.664-95.844 163.869-24.569 61.136-36.852 128.305-36.852 201.506 0 33.854 5.463 66.35 16.389 97.486 10.893 31.148 26.463 58.43 46.71 81.924 20.173 23.461 44.458 42.319 72.88 56.528 28.39 14.176 59.527 21.282 93.379 21.282s65.278-6.286 94.235-18.817c28.924-12.572 54.064-29.494 75.345-50.813 21.318-21.282 37.959-46.135 49.957-74.526 12.034-28.424 18.034-58.455 18.034-90.13 0-26.211-3.536-49.709-10.641-70.457s-16.141-39.316-27.034-55.706c-10.927-16.357-23.497-31.923-37.675-46.674-14.206-14.748-28.419-29.246-42.597-43.423zM906.019 420.703c-19.64-19.676-30.855-44.531-33.568-74.562-2.749-30.033 0.534-61.42 9.822-94.202 9.248-32.745 23.176-64.99 41.781-96.667 18.569-31.673 39.316-58.957 62.24-81.916 15.285-16.389 18.853-29.783 10.677-40.139-8.213-10.392-19.962-11.211-35.247-2.465-45.851 24.031-92.846 54.349-140.909 90.952-48.067 36.566-91.738 78.881-131.054 126.947s-71.275 102.664-95.844 163.869c-24.569 61.136-36.852 128.305-36.852 201.506 0 33.854 5.427 66.35 16.357 97.486s26.496 58.422 46.707 81.916c20.21 23.461 44.495 42.314 72.917 56.528 28.39 14.176 59.527 21.282 93.379 21.282s65.241-6.286 94.202-18.817c28.924-12.572 54.064-29.494 75.382-50.813 21.282-21.282 37.923-46.135 49.957-74.526 11.997-28.424 18.034-58.455 18.034-90.13 0-26.211-3.572-49.709-10.677-70.457s-16.104-39.316-27.034-55.706c-10.927-16.357-23.497-31.923-37.675-46.674-14.206-14.74-28.419-29.238-42.597-43.416z" />
<glyph unicode="&#xe90a;" glyph-name="quote-icon-06" d="M832.005 546.826c-125.701-31.464-62.85 83.747 41.874 139.631 34.935 27.916 20.949 80.251-31.412 69.818-90.766-20.925-174.565-101.228-219.934-195.517-125.673-275.766 34.91-422.388 181.533-422.388h20.949c111.715 0 198.985 87.243 198.985 202.453v17.481c0 108.219-76.808 212.943-191.994 188.523zM258.292 546.826c-132.664-31.464-62.85 83.747 34.91 139.631 41.897 27.916 20.949 80.251-24.445 69.818-94.261-20.925-178.037-101.228-219.934-195.517-132.667-275.766 31.412-422.388 178.033-422.388h20.952c108.244 0 202.481 87.243 202.481 202.453v17.481c-0.003 108.219-76.784 212.943-191.998 188.523z" />
<glyph unicode="&#xe912;" glyph-name="quote-icon-07" d="M396.494 275.009c7.198-7.22 14.4-36.056 10.807-54.061-10.807-46.882-140.587-162.225-201.845-162.225-122.559 0-205.455 129.778-205.455 270.347 0 273.916 284.743 461.366 454.168 508.207 10.807-3.61 39.644-72.067 32.423-82.896-205.436-93.723-266.718-209.066-266.718-309.972-0.003-75.717 75.677-140.565 176.62-169.4zM929.926 275.009c7.22-7.22 18.028-36.056 14.437-54.061-14.437-43.272-144.178-162.225-201.849-162.225-122.559 0-209.066 126.169-209.066 270.347 0 273.916 288.353 461.366 457.756 508.207 10.831-3.61 36.056-72.067 32.445-82.896-209.066-93.723-270.325-209.066-270.325-309.972 0-75.717 79.287-140.565 176.601-169.4z" />
<glyph unicode="&#xe913;" glyph-name="icon-font-08" d="M220.557 75.367c-59.080 0-110.589 21.346-154.56 64.091-44.024 42.745-65.997 96.161-65.997 160.252 0 123.17 65.042 239.698 195.13 349.689 130.058 109.992 212.688 164.935 247.89 164.935 25.128 0 37.708-10.671 37.708-32.016 0-11.327-44.024-52.764-131.964-124.42-95.535-80.425-143.262-148.926-143.262-205.501 0-32.672 28.886-63.436 86.715-92.35 64.091-31.418 96.136-76.667 96.136-135.747 0-40.241-15.408-75.090-46.174-104.602-30.824-29.574-71.365-44.33-121.621-44.33zM765.735 81.665c-60.333 0-112.171 21.346-155.514 64.091-43.372 42.745-65.042 96.161-65.042 160.252 0 123.17 65.042 239.698 195.1 349.689 130.084 109.992 212.717 164.935 247.918 164.935 23.849 0 35.803-10.671 35.803-32.016 0-11.327-43.343-52.764-130.058-124.42-95.535-80.425-143.291-148.926-143.291-205.501 0-32.672 28.914-63.436 86.715-92.35 62.837-31.418 94.256-76.667 94.256-135.747 0-40.241-15.084-75.090-45.224-104.602-30.165-29.574-70.407-44.33-120.663-44.33z" />
<glyph unicode="&#xe914;" glyph-name="quote-icon-09" d="M0 28.776c79.037 288.635 226.783 659.766 323.006 817.822l192.436 20.625c-75.594-202.741-164.95-556.669-202.741-804.096l-312.701-34.35zM512.002 28.776c75.594 288.635 226.802 659.766 319.581 817.822l192.418 20.625c-75.594-202.741-164.932-556.669-202.741-804.096l-309.257-34.35z" />
<glyph unicode="&#xe915;" glyph-name="quote-icon-10" d="M382.292 838.482h73.751v-16.387c-73.751-68.276-125.606-202.093-125.606-281.281 0-51.855 13.649-92.836 43.68-122.868 40.943-40.943 73.713-73.713 73.713-158.375 0-111.957-90.098-202.055-212.967-202.055-142.026 0-234.863 109.219-234.863 311.275 0.004 240.304 172.024 469.692 382.292 469.692zM950.287 838.482h73.713v-16.387c-71.013-68.276-125.606-202.093-125.606-281.281 0-51.855 13.649-92.836 43.68-122.868 40.943-40.943 73.713-73.713 73.713-158.375 0-111.957-90.098-202.055-212.967-202.055-139.255 0-234.824 109.219-234.824 311.275 0.004 240.304 172.027 469.692 382.292 469.692z" />
<glyph unicode="&#xe916;" glyph-name="quote-icon-11" d="M263.319 477.271h146.283v-394.989h-409.602v394.989l248.681 336.448 160.917-117.035-146.279-219.411zM877.716 477.271h146.283v-394.989h-409.597v394.989l248.681 336.448 160.917-117.035-146.283-219.411z" />
<glyph unicode="&#xe917;" glyph-name="quote-icon-12" d="M414.624 948.616v-189.606c-50.524-28.68-89.329-64.094-116.262-106.19-26.986-42.148-47.233-86.861-60.702-133.993-13.517-47.233-20.251-99.507-20.251-156.765h197.216v-414.678h-414.626v257.913c0 155.067 14.753 273.076 44.255 353.977 29.45 80.901 74.58 155.477 135.278 223.736 60.649 68.259 139.030 123.458 235.094 165.606zM1023.999 948.616v-189.606c-50.577-28.68-88.972-64.094-115.078-106.19-26.111-42.148-45.949-86.861-59.418-133.993-13.465-47.233-20.199-99.507-20.199-156.765h194.696v-414.678h-414.678v257.913c0 155.067 14.753 273.076 44.255 353.977 29.45 80.901 74.58 155.477 135.278 223.736 60.649 68.259 139.030 123.458 235.145 165.606z" />
<glyph unicode="&#xe918;" glyph-name="quote-icon-13" d="M0 836.754h462.695v-455.123h-212.38v-322.384c-49.294 11.394-49.294 11.394-60.67 15.181-113.791 37.935-189.644 147.921-189.644 269.263v493.062zM204.808 609.174l-166.87 163.104v-329.956l166.87 166.852zM37.935 389.201v-41.723l174.463-174.463v106.199l-140.329 144.134-34.133-34.148zM212.397 104.757v15.181l-170.674 170.674c18.97-83.446 79.64-151.709 163.086-182.033l7.59-3.822zM231.349 635.715l166.87 166.891h-337.526l170.657-166.891zM212.397 332.336v87.23h22.753l-83.446 83.406-53.1-53.082 113.791-117.554zM178.25 529.552l109.986-109.986h106.199l-163.086 163.065-53.1-53.079zM254.103 609.174l170.674-170.639v106.159l-113.791 117.597-56.883-53.117zM337.547 688.832l87.23-91.017v106.199l-34.13 37.899-53.1-53.082zM417.189 768.455l7.593-11.359v18.966l-7.593-7.607zM561.305 836.754h462.695v-455.123h-212.38v-322.384c-49.311 11.394-49.311 11.394-60.693 15.181-113.77 37.935-189.626 147.921-189.626 269.263v493.062zM766.109 609.174l-166.87 163.104v-329.956l166.87 166.852zM599.24 389.201v-41.723l174.445-174.463v106.199l-140.312 144.134-34.133-34.148zM773.684 104.757v15.181l-170.657 170.674c18.97-83.446 79.64-151.709 163.086-182.033l7.572-3.822zM792.65 635.715l166.87 166.891h-337.526l170.657-166.891zM773.684 332.336v87.23h22.753l-83.428 83.406-53.1-53.082 113.773-117.554zM739.551 529.552l109.986-109.986h106.199l-163.086 163.065-53.1-53.079zM815.403 609.174l170.674-170.639v106.159l-113.791 117.597-56.883-53.117zM898.849 688.832l87.23-91.017v106.199l-34.13 37.899-53.1-53.082zM978.489 768.455l7.593-11.359v18.966l-7.593-7.607z" />
<glyph unicode="&#xe919;" glyph-name="quote-icon-14" d="M368.882 72.43v361.888c-6.728 6.929-17.244 10.789-31.493 11.634-14.277 0.9-29.409 1.295-45.333 1.295-15.98 0-31.123 0.45-45.375 1.295-14.277 0.9-24.796 4.761-31.493 11.634 13.429 65.527 39.045 116.321 76.868 152.519 37.781 36.199 88.578 54.288 152.419 54.288 0 25.863-1.264 53.893-3.76 84.007-2.528 30.17-9.692 45.243-21.416 45.243-100.798 18.989-181.041 10.339-240.654-25.863-59.638-36.171-103.297-90.008-131.003-161.564-27.733-71.472-43.272-154.662-46.625-249.456-3.376-94.741 1.648-190.411 15.129-286.926h352.737zM66.531 175.818v25.863h50.385v-25.863h-50.385zM91.739 279.233c13.429 0 25.589-0.845 36.52-2.594 10.901-1.69 16.392-8.591 16.392-20.678h-52.912v23.272zM91.739 328.337h25.18c0-12.029-0.852-18.93-2.5-20.678-1.703-1.69-9.252-2.594-22.68-2.594v23.272zM116.916 460.181c-13.456 0-21.004 0.9-22.68 2.59-1.676 1.717-2.5 9.494-2.5 23.269 0-6.873 1.264-10.762 3.76-11.634 2.528-0.845 5.436-1.295 8.841-1.295 3.321 0 6.288-0.422 8.812-1.295 2.507-0.845 3.768-4.733 3.768-11.634zM116.916 408.488c13.429 0 16.777-2.984 10.076-9.044-6.724-6.028-10.076-2.984-10.076 9.044zM116.916 486.040c6.7 13.805 11.752 20.256 15.129 19.38 3.348-0.845 5.024-3.889 5.024-9.044 0-5.183-1.676-9.917-5.024-14.228-3.376-4.276-8.428-2.981-15.129 3.892zM144.648 356.79h22.68c0-13.775-0.88-21.974-2.528-24.564-1.703-2.59-8.428-3.889-20.153-3.889v28.452zM144.648 617.857c5.024 12.085 9.197 16.424 12.604 12.93 3.321-3.439 5.024-8.14 5.024-14.197 0-6.028-1.703-10.762-5.024-14.228-3.404-3.439-7.577 1.745-12.604 15.495zM167.328 227.512c6.672 13.833 11.312 20.285 13.84 19.411 2.528-0.845 3.788-3.889 3.788-9.072 0-5.156-1.264-9.889-3.788-14.197-2.528-4.283-7.168-2.989-13.84 3.858zM192.509 201.681h22.68v-25.863h-22.68v25.863zM948.408 72.43c0 65.499 3.348 128.828 10.076 189.989 6.672 61.188 3.348 118.516-10.076 171.903-13.481 6.929-26.469 10.789-39.073 11.634-12.576 0.9-25.18 1.295-37.781 1.295s-25.205 0.45-37.781 1.295c-12.604 0.9-24.821 4.761-36.545 11.634 0 65.527 21.801 116.321 65.513 152.519 43.657 36.199 97.393 54.288 161.259 54.288 0 39.665-5.492 71.978-16.392 96.937-10.956 25.018-22.268 44.398-34.021 58.172-94.069 6.901-170.483-10.339-229.273-51.721-58.813-41.355-102.033-97.332-129.766-168.014-27.704-70.655-42.421-152.519-44.097-245.571-1.676-93.079 6.7-187.845 25.205-284.363h352.751zM646.044 408.488c6.7 18.989 11.34 27.13 13.865 24.564 2.528-2.59 3.788-7.774 3.788-15.523 0-7.746-1.264-14.228-3.788-19.38-2.524-5.183-7.164-1.69-13.865 10.339zM696.455 460.181c-25.205 0-35.724 5.183-31.521 15.523 4.172 10.339 6.316 22.397 6.316 36.171h50.385c0-12.029-1.264-20.678-3.788-25.835-2.5-5.183-5.464-8.622-8.812-10.339-3.376-1.717-6.288-3.016-8.812-3.889-2.531-0.842-3.768-4.73-3.768-11.631h25.18v-25.863c-13.456 0-21.032 0.9-22.68 2.59-1.676 1.749-2.5 9.494-2.5 23.272zM671.247 227.512h25.205v-25.835h-25.205v25.835zM696.455 356.79c-5.052 0-9.252 0.872-12.604 2.562-8.428 3.494-12.604 11.24-12.604 23.269 3.348 0 7.552-0.845 12.604-2.594 8.373-3.404 12.604-11.181 12.604-23.238zM671.247 537.737c6.7 13.805 11.34 20.285 13.865 19.38 2.5-0.845 3.76-3.889 3.76-9.044 0-5.183-1.264-9.889-3.76-14.228-2.524-4.28-7.164-2.984-13.865 3.892zM721.633 255.964c6.7 12.085 11.34 16.396 13.865 12.93 2.528-3.439 3.76-8.169 3.76-14.228 0-6.028-1.236-10.734-3.76-14.228-2.524-3.431-7.164 1.752-13.865 15.527zM746.841 328.337c6.672 13.833 11.34 19.38 13.84 16.818 2.528-2.594 3.788-7.323 3.788-14.228 0-6.873-1.264-12.029-3.788-15.523-2.5-3.435-7.168 0.904-13.84 12.933zM772.018 690.256c6.7 0 10.489-1.295 11.34-3.889 0.825-2.59 0.412-4.283-1.264-5.156-1.676-0.845-3.76-0.845-6.288 0-2.524 0.872-3.788 3.861-3.788 9.044zM822.431 718.681c11.724 0 14.661-3.439 8.812-10.339-5.901-6.873-8.812-3.439-8.812 10.339zM847.611 201.681c6.7 13.805 11.34 20.285 13.865 19.38 2.528-0.845 3.788-3.889 3.788-9.044 0-5.183-1.264-9.889-3.788-14.228-2.524-4.28-7.164-2.981-13.865 3.892z" />
<glyph unicode="&#xe91a;" glyph-name="quote-icon-15" d="M428.255 280.027c0 4.366 0 4.366-4.416 4.366h-8.783c0-8.783 4.391-21.986 13.199-26.403v-153.995c-4.416-48.439-30.819-74.842-79.233-74.842h-8.783c8.783 8.838 4.391 44.022 4.391 44.022-26.403 0-26.403-8.783-17.594-26.403l8.783-8.783c0-4.416 4.416-8.838 4.416-8.838-88.016-4.366-176.031-4.366-259.66 0-8.783 0-17.594 4.416-30.794 4.416 0 13.199 0 21.986-8.808 26.403-4.391 4.416-8.783 0-8.783-4.416 4.391 0 4.391-8.783 4.391-8.783v-4.416c-17.594 13.199-26.403 35.24-30.794 61.639v171.615c-8.808 57.221-8.808 118.81 8.783 180.398l4.416-4.366c4.391 4.366 4.391 4.366 4.391 8.783l-4.391 8.838 4.391 4.366v4.416c92.407 268.443 132.013 400.456 268.443 391.669 35.211-4.416 57.196-13.199 66.004-26.403 26.403-26.403 4.391-88.041-4.391-123.23-57.221-184.818-48.414-237.623 4.391-264.076-4.391-4.366-8.808-4.366-4.391-4.366 0-17.62 4.391-30.819 13.199-44.022 4.391 4.416 4.391 17.62 0 39.602 79.216-30.81 61.622-87.982 61.622-167.19zM23.383 354.817l4.391-8.783 4.42-4.42v13.199h-8.812zM45.394 249.207l-22.012 21.986v-17.565l8.812-26.407 13.199 21.986zM45.394 139.18l-13.199 13.199 8.783 4.416-4.391 8.783-8.808-17.62 4.416-13.195v-8.783h4.391l8.808 13.199zM85 209.605l4.391 8.783-8.808 4.416h-4.395v-13.199h8.812zM98.199 81.959l-8.808 4.416 4.391-8.783v-4.416l4.416 4.416v4.366zM133.409 566.035l13.199-26.403 21.986 44.022-35.186 8.783v-26.403zM151.005 46.773l-13.199 4.416v-8.838l4.391-8.783 4.416-4.416 4.391 17.62zM146.614 658.446c8.783-4.366 8.783 4.416 17.594 0v30.819l-17.594-30.819zM173.015 438.442l-8.808 8.783-8.808-4.416 4.416-17.565 8.783-13.199 8.808-4.416v8.783l-4.391 22.033zM159.813 196.402l30.794-4.416-4.391 17.62-30.819 30.819 4.416-44.022zM195.002 64.389l-4.391 30.768-4.395 22.037-4.416-26.403 8.808-26.403h4.395zM230.212 372.438v13.199l-13.203 4.366h-4.391l-17.62-43.968 35.215 26.403zM212.618 500.031h35.186l-13.199 35.24-21.986-35.24zM230.212 271.193v-4.366h8.808l-8.808 4.366zM252.224 51.19l-13.199 13.199-8.808-4.416 4.391-8.783 13.199-13.199 4.416 13.199zM252.224 671.645l22.012 8.838v30.768l-39.631-4.366 17.62-35.24zM269.814 222.804h8.808l4.391 4.416h-8.783l-4.416-4.416zM287.434 90.791l-4.416 13.199v4.366l-4.391 8.838v-17.62l4.391-13.199 4.416 4.416zM318.227 376.804h13.199l-4.391 13.199-4.416 4.416-4.391-4.416v-13.199zM340.239 244.791l-4.416 22.037-17.594 4.366 8.808-21.986 8.783-13.199 4.42 8.783zM335.823 161.167l-4.391 8.838-8.808 8.783 4.416-13.199 8.783-4.42zM362.225 328.415l4.416-21.986 8.783-4.416 4.416 26.403h-17.615zM371.034 209.605l4.391-8.783 8.808 4.366-4.391 22.037-8.808 8.783-8.808-13.199 8.808-13.203zM366.642 451.642v0zM388.628 108.362l-13.199-4.366 4.416-13.199 4.391-4.416 4.391 21.982zM1017.92 284.393h-8.783c0-8.783 4.416-21.986 13.199-26.403v-153.995c-4.416-48.439-30.819-74.842-79.208-74.842h-8.783c8.783 8.838 4.366 44.022 4.366 44.022-26.403 0-26.403-8.783-17.565-26.403l8.783-8.783c0-4.416 4.416-8.838 4.416-8.838-88.041-4.366-176.031-4.366-259.66 0-8.783 0-17.62 4.416-30.819 4.416 0 13.199 0 21.986-8.783 26.403-4.416 4.416-8.783 0-8.783-4.416 4.366 0 4.366-8.783 4.366-8.783v-4.416c-17.594 13.199-26.403 35.24-30.794 61.639v171.615c-8.808 57.221-8.808 118.81 8.808 180.398l4.391-4.366c4.391 4.366 4.391 4.366 4.391 8.783l-4.391 8.838 4.391 4.366v4.416c92.407 268.443 132.013 400.456 268.443 391.669 35.24-4.416 57.221-13.199 66.004-26.403 26.403-26.403 4.416-88.041-4.366-123.23-57.221-184.818-48.439-237.623 4.366-264.076-4.366-4.366-8.783-4.366-4.366-4.366 0-17.62 4.366-30.819 13.199-44.022 4.366 4.416 4.366 17.62 0 39.602 79.208-30.819 61.588-87.991 61.588-167.199 0.004 4.374 0.004 4.374-4.412 4.374zM617.464 354.817l4.416-8.783 4.416-4.416v13.199h-8.833zM639.501 249.207l-22.037 21.986v-17.565l8.838-26.403 13.199 21.982zM639.501 139.18l-13.199 13.199 8.783 4.416-4.416 8.783-8.783-17.62 4.416-13.199v-8.783h4.366l8.833 13.203zM679.107 209.605l4.366 8.783-8.783 4.416h-4.416v-13.199h8.833zM692.306 81.959l-8.838 4.416 4.416-8.783v-4.416l4.416 4.416v4.366zM727.492 566.035l13.199-26.403 21.986 44.022-35.186 8.783v-26.403zM745.111 46.773l-13.199 4.416v-8.838l4.366-8.783 4.416-4.416 4.416 17.62zM740.695 658.446c8.783-4.366 8.783 4.416 17.62 0v30.819l-17.62-30.819zM767.098 438.442l-8.783 8.783-8.838-4.416 4.416-17.565 8.783-13.199 8.838-4.416v8.783l-4.416 22.033zM753.894 196.402l30.819-4.416-4.416 17.62-30.819 30.819 4.416-44.022zM789.080 64.389l-4.366 30.768-4.416 22.037-4.416-26.403 8.838-26.403h4.362zM824.319 372.438v13.199l-13.199 4.366h-4.416l-17.62-43.968 35.236 26.403zM806.7 500.031h35.186l-13.199 35.24-21.986-35.24zM824.319 271.193v-4.366h8.783l-8.783 4.366zM846.301 51.19l-13.199 13.199-8.783-4.416 4.366-8.783 13.199-13.199 4.416 13.199zM846.301 671.645l21.986 8.838v30.768l-39.602-4.366 17.615-35.24zM863.921 222.804h8.783l4.416 4.416h-8.838l-4.362-4.416zM881.491 90.791l-4.366 13.199v4.366l-4.416 8.838v-17.62l4.416-13.199 4.366 4.416zM912.31 376.804h13.199l-4.366 13.199-4.416 4.416-4.416-4.416v-13.199zM934.347 244.791l-4.416 22.037-17.62 4.366 8.838-21.986 8.783-13.199 4.416 8.783zM929.931 161.167l-4.416 8.838-8.783 8.783 4.416-13.199 8.783-4.42zM956.332 328.415l4.416-21.986 8.783-4.416 4.416 26.403h-17.615zM965.115 209.605l4.416-8.783 8.783 4.366-4.366 22.037-8.838 8.783-8.783-13.199 8.787-13.203zM960.749 451.642v0zM982.732 108.362l-13.199-4.366 4.416-13.199 4.366-4.416 4.416 21.982z" />
<glyph unicode="&#xe91b;" glyph-name="star-solid-empty" d="M1017.344 561.466l-349.123 50.749-156.186 316.429-156.17-316.429-349.21-50.749 252.688-246.307-59.645-347.824 312.349 164.221 312.282-164.221-59.594 347.824z" />
<glyph unicode="&#xe91c;" glyph-name="star-rounded-solid-empty" d="M960.687 605.102l-271.579 39.477-121.472 246.118c-30.584 61.96-80.632 61.96-111.213 0l-121.475-246.118-271.642-39.473c-68.33-9.947-83.786-57.51-34.384-105.722l196.592-191.638-46.387-270.486c-11.681-68.126 28.807-97.553 89.989-65.387l242.92 127.718 242.917-127.718c61.157-32.161 101.601-2.738 89.916 65.387l-46.328 270.486 196.532 191.638c49.413 48.207 33.949 95.771-34.384 105.719z" />
<glyph unicode="&#xe91d;" glyph-name="star-box-empty" d="M914.23 960h-804.457c-60.375 0-109.773-49.398-109.773-109.773v-804.454c0-60.375 49.398-109.773 109.773-109.773h804.454c60.375 0 109.773 49.398 109.773 109.773v804.454c0.003 60.375-49.394 109.773-109.77 109.773zM911.294 514.863l-162.446-158.403 38.296-223.575c9.657-56.31-23.777-80.632-74.323-54.048l-200.79 105.569-200.79-105.569c-50.572-26.583-84.038-2.262-74.383 54.048l38.344 223.575-162.497 158.403c-40.836 39.848-28.062 79.161 28.42 87.386l224.534 32.628 100.406 203.435c25.281 51.216 66.651 51.216 91.928 0l100.406-203.435 224.479-32.628c56.478-8.226 69.255-47.539 28.416-87.386z" />
</font>
</defs>
</svg>
